<svg version="1.1" id="Layer_1" xmlns="http://www.w3.org/2000/svg" xmlns:xlink="http://www.w3.org/1999/xlink" x="0px" y="0px"
	 viewBox="0 0 576 180" style="enable-background:new 0 0 576 180;" xml:space="preserve">
<style type="text/css">
	.st0{fill:#3E4346;}
	.st1{fill:#636931;}
	.st2{fill:#FFFFFF;}
	.st3{fill:#D75351;}
	.st4{fill:#F4DC80;}
</style>
<ellipse class="st0" cx="61.9" cy="170.3" rx="35.1" ry="5.8"/>
<path class="st1" d="M112,102.7l-2.1-9.8l-7.3,6.9l-0.2,0.2c0-0.2,0-0.3,0-0.5c0-4.8-0.8-10-2.4-15.3c1.3-1.8,3.6-3.5,8-4.8
	c-3.3-0.3-6.2-0.9-8.6-1.5c1.1-2.2,3.4-4.2,8.6-5.8c-6.7-0.7-11.5-2.2-14.7-3.6c-1-1.8-2.1-3.4-3.2-5.1l4-2.1l5.4,2.6l12.1,5.8
	L107.3,57c-4.7-13.8-11.1-26.5-18.1-35.7c-4-5.2-8.1-9.3-12.3-12.2C72,5.6,66.9,3.9,62,3.9c-5,0-10,1.7-15,5.2
	c-4.2,2.9-8.3,7.1-12.3,12.3c-7.1,9.4-13.5,22.2-18.2,36l-4.1,12.1l11.7-5.1l7.2-3.2l2.9,1.4c-1.3,1.8-2.6,3.8-3.7,5.8
	c-3.2,1.5-8,3-14.7,3.6c5.2,1.6,7.5,3.6,8.6,5.8c-2.4,0.6-5.3,1.2-8.6,1.5c4.4,1.3,6.7,3,8,4.8c-1.5,5-2.3,10-2.4,14.7l-7-5.3
	l-1.9,8.7c-1.6,7.2-2.4,13.8-2.4,19.1c0,28.7,23.3,52.1,52,52.1c28.7,0,52.1-23.4,52.1-52.1C114.3,116.1,113.5,109.7,112,102.7z"/>
<path class="st2" d="M106.4,103.9l-10.9,10.3l-17-12.1l-16.4,16.7l-16.1-16.7l-13.8,12l-14.2-10.8c-1.5,6.7-2.3,12.9-2.3,17.9
	c0,4.8,0.7,9.5,2.1,13.9l3.3,1.5l7.8-8.5l11.5,16l8.4-8.2l-8.4,10.7l-11.5-12.2l-6.2,8.7l-2-0.7c7.7,15,23.3,25.2,41.3,25.2
	c25.6,0,46.4-20.8,46.4-46.4C108.6,116.5,107.9,110.4,106.4,103.9z"/>
<path class="st3" d="M91.5,79.7c-0.6-0.1-12,4.1-14.7,6.1c0,0,0-3.5-1.7-4.1c0.5,3.2-2.9,6.4-3,6.4c0,0-0.1-4.1-0.6-4.3
	c-0.2-0.1-0.2,2.8-5.5,5.8c1.2-3.3-1-6.4-2.5-6l-1.6,5.1l-1.6-5.1c-1.5-0.4-3.7,2.7-2.5,6c-5.3-2.9-5.3-5.8-5.5-5.8
	c-0.5,0.2-0.6,4.3-0.6,4.3c-0.1-0.1-3.5-3.3-3-6.4c-1.6,0.7-1.7,4.1-1.7,4.1c-2.7-2-14.1-6.2-14.7-6.1c-3,0.6,3.8,12.3,3.9,11.2
	c0.2-1.9,3.3-3.6,3.2-3.5c-1.9,2.3,4.4,8.8,4.6,8.3c1.3-2.8,2.7-3.4,2.7-3.4c-0.6,3.1,0.4,6.2,0.5,5.8c1.1-4.7,3-4.6,3-4.6
	c-4.3,6,7.5,11.2,11.7,3.7c4.2,7.5,16,2.3,11.7-3.7c0,0,1.9-0.1,3,4.6c0.1,0.4,1.2-2.7,0.5-5.8c0,0,1.4,0.6,2.7,3.4
	c0.2,0.5,6.4-6,4.6-8.3c-0.1-0.1,2.9,1.6,3.2,3.5C87.7,92,94.5,80.3,91.5,79.7z"/>
<path class="st4" d="M85.4,66.1c0,0,0.1,6.4-14.3,6.8c2.8-3.1,4.6-4.5,4.9-4.7c0.3-0.2,0.5,2,3,1.9c-1.3-1.5-1.4-2.9,0-3.6
	C80.6,65.6,83.1,65.6,85.4,66.1"/>
<path class="st4" d="M38.5,66.1c0,0-0.1,6.4,14.3,6.8c-2.8-3.1-4.6-4.5-4.9-4.7c-0.3-0.2-0.5,2-3,1.9c1.3-1.5,1.4-2.9,0-3.6
	C43.3,65.6,40.7,65.6,38.5,66.1"/>
<path class="st2" d="M94,55l-14.3,7.4L61.9,50.4L46.3,62.3L31.5,55l-9.6,4.2C30.5,33.7,46.2,9.5,62,9.5c15.7,0,31.4,23.9,39.9,49.3
	L94,55z"/>
<path class="st3" d="M141.2,155.9h6.5v9.4c0,4.7-2.4,7.4-6.9,7.4s-6.9-2.7-6.9-7.4v-15.4c0-4.7,2.4-7.4,6.9-7.4s6.9,2.7,6.9,7.4v2.9
	h-4.4v-3.2c0-2.1-0.9-2.9-2.4-2.9c-1.5,0-2.4,0.8-2.4,2.9v16c0,2.1,0.9,2.9,2.4,2.9c1.5,0,2.4-0.8,2.4-2.9v-5.4h-2.1V155.9z"/>
<path class="st3" d="M175.8,172.3c-0.3-0.8-0.4-1.2-0.4-3.6v-4.6c0-2.7-0.9-3.8-3-3.8h-1.6v12h-4.6v-29.6h7c4.8,0,6.9,2.2,6.9,6.8
	v2.3c0,3-1,5-3,6c2.3,1,3.1,3.2,3.1,6.3v4.6c0,1.4,0,2.5,0.5,3.6H175.8z M170.8,147v9.1h1.8c1.7,0,2.8-0.8,2.8-3.1v-2.9
	c0-2.1-0.7-3-2.4-3H170.8z"/>
<path class="st3" d="M214.4,172.3h-4.7l-0.8-5.4h-5.7l-0.8,5.4h-4.3l4.7-29.6h6.8L214.4,172.3z M203.8,163h4.5L206,148L203.8,163z"
	/>
<path class="st3" d="M246.2,150.1v3.8c0,4.7-2.3,7.3-6.9,7.3H237v11.1h-4.6v-29.6h6.8C243.9,142.8,246.2,145.4,246.2,150.1z
	 M237,147v10h2.2c1.5,0,2.3-0.7,2.3-2.8v-4.4c0-2.1-0.8-2.8-2.3-2.8H237z"/>
<path class="st3" d="M268.8,172.3h-4.6v-29.6h4.6v12.7h5.3v-12.7h4.7v29.6h-4.7v-12.7h-5.3V172.3z"/>
<path class="st3" d="M297.5,142.8h4.6v29.6h-4.6V142.8z"/>
<path class="st3" d="M334.5,161.3v3.9c0,4.7-2.4,7.4-6.9,7.4s-6.9-2.7-6.9-7.4v-15.4c0-4.7,2.4-7.4,6.9-7.4s6.9,2.7,6.9,7.4v2.9
	h-4.4v-3.2c0-2.1-0.9-2.9-2.4-2.9c-1.5,0-2.4,0.8-2.4,2.9v16c0,2.1,0.9,2.9,2.4,2.9c1.5,0,2.4-0.8,2.4-2.9v-4.2H334.5z"/>
<path class="st3" d="M365.2,142.8h7.3c4.6,0,6.9,2.6,6.9,7.3V165c0,4.7-2.3,7.3-6.9,7.3h-7.3V142.8z M369.8,147v21.1h2.6
	c1.5,0,2.4-0.8,2.4-2.9v-15.4c0-2.1-0.9-2.9-2.4-2.9H369.8z"/>
<path class="st3" d="M398.4,155.2h6.4v4.2h-6.4v8.7h8v4.2h-12.7v-29.6h12.7v4.2h-8V155.2z"/>
<path class="st3" d="M427.2,142.5c4.5,0,6.8,2.7,6.8,7.4v0.9h-4.4v-1.2c0-2.1-0.8-2.9-2.3-2.9c-1.5,0-2.3,0.8-2.3,2.9
	c0,6.1,9.1,7.2,9.1,15.7c0,4.7-2.4,7.4-6.9,7.4s-6.9-2.7-6.9-7.4v-1.8h4.4v2.1c0,2.1,0.9,2.9,2.4,2.9c1.5,0,2.4-0.8,2.4-2.9
	c0-6.1-9.1-7.2-9.1-15.7C420.3,145.2,422.6,142.5,427.2,142.5z"/>
<path class="st3" d="M448.1,142.8h4.6v29.6h-4.6V142.8z"/>
<path class="st3" d="M474.4,155.9h6.5v9.4c0,4.7-2.4,7.4-6.9,7.4s-6.9-2.7-6.9-7.4v-15.4c0-4.7,2.4-7.4,6.9-7.4s6.9,2.7,6.9,7.4v2.9
	h-4.4v-3.2c0-2.1-0.9-2.9-2.4-2.9s-2.4,0.8-2.4,2.9v16c0,2.1,0.9,2.9,2.4,2.9s2.4-0.8,2.4-2.9v-5.4h-2.1V155.9z"/>
<path class="st3" d="M499.4,150.9v21.4h-4.2v-29.6h5.8l4.8,17.7v-17.7h4.1v29.6h-4.8L499.4,150.9z"/>
<path class="st3" d="M529.2,155.2h6.4v4.2h-6.4v8.7h8v4.2h-12.7v-29.6h12.7v4.2h-8V155.2z"/>
<path class="st3" d="M561.1,172.3c-0.3-0.8-0.4-1.2-0.4-3.6v-4.6c0-2.7-0.9-3.8-3-3.8H556v12h-4.6v-29.6h7c4.8,0,6.9,2.2,6.9,6.8
	v2.3c0,3-1,5-3,6c2.3,1,3.1,3.2,3.1,6.3v4.6c0,1.4,0,2.5,0.5,3.6H561.1z M556,147v9.1h1.8c1.7,0,2.8-0.8,2.8-3.1v-2.9
	c0-2.1-0.7-3-2.4-3H556z"/>
<path class="st3" d="M160.4,129c-0.7-2.1-1.2-3.3-1.2-9.9v-12.7c0-7.5-2.5-10.3-8.3-10.3h-4.4V129h-12.7V48.2H153
	c13.2,0,18.8,6.1,18.8,18.6v6.3c0,8.3-2.7,13.7-8.3,16.4c6.3,2.7,8.4,8.8,8.4,17.2v12.5c0,3.9,0.1,6.8,1.4,9.8H160.4z M146.5,59.7
	v24.8h5c4.7,0,7.6-2.1,7.6-8.5v-8c0-5.8-2-8.3-6.5-8.3H146.5z"/>
<path class="st3" d="M179.6,48.2h12.7V129h-12.7V48.2z"/>
<path class="st3" d="M199.5,67.6c0-12.9,6.8-20.3,19.3-20.3c12.5,0,19.3,7.4,19.3,20.3v42c0,12.9-6.8,20.3-19.3,20.3
	c-12.5,0-19.3-7.4-19.3-20.3V67.6z M212.2,110.4c0,5.8,2.5,8,6.6,8c4,0,6.6-2.2,6.6-8V66.7c0-5.8-2.5-8-6.6-8c-4,0-6.6,2.2-6.6,8
	V110.4z"/>
<path class="st3" d="M283.2,84H301v25.6c0,12.9-6.5,20.3-18.9,20.3s-18.9-7.4-18.9-20.3v-42c0-12.9,6.5-20.3,18.9-20.3
	S301,54.6,301,67.6v7.9h-12v-8.7c0-5.8-2.5-8-6.6-8c-4,0-6.6,2.2-6.6,8v43.6c0,5.8,2.5,7.9,6.6,7.9c4,0,6.6-2.1,6.6-7.9V95.5h-5.8
	V84z"/>
<path class="st3" d="M349.6,129h-12.8l-2.2-14.7H319l-2.2,14.7h-11.7l12.9-80.8h18.6L349.6,129z M320.6,103.3h12.2l-6.1-40.9
	L320.6,103.3z"/>
<path class="st3" d="M348,48.2h39.3v11.5h-13.3V129h-12.7V59.7H348V48.2z"/>
<path class="st3" d="M392.8,48.2h20.1c12.7,0,18.9,7,18.9,20V109c0,12.9-6.2,20-18.9,20h-20.1V48.2z M405.5,59.7v57.7h7.2
	c4,0,6.5-2.1,6.5-7.9v-42c0-5.8-2.4-7.9-6.5-7.9H405.5z"/>
<path class="st3" d="M451.2,48.2v62.3c0,5.8,2.5,7.9,6.6,7.9s6.6-2.1,6.6-7.9V48.2h12v61.5c0,12.9-6.5,20.3-18.9,20.3
	c-12.5,0-18.9-7.4-18.9-20.3V48.2H451.2z"/>
<path class="st3" d="M483.8,48.2h12.7v69.3h20.9V129h-33.6V48.2z"/>
<path class="st3" d="M565.8,129H553l-2.2-14.7h-15.6L533,129h-11.7l12.9-80.8h18.6L565.8,129z M536.8,103.3h12.2L543,62.5
	L536.8,103.3z"/>
</svg>
